{
    "asset" : {
        "generator" : "Khronos glTF Blender I/O v1.8.19",
        "version" : "2.0"
    },
    "extensionsUsed" : [
        "KHR_materials_transmission"
    ],
    "scene" : 0,
    "scenes" : [
        {
            "name" : "Scene",
            "nodes" : [
                0
            ]
        }
    ],
    "nodes" : [
        {
            "mesh" : 0,
            "name" : "Cube.003"
        }
    ],
    "materials" : [
        {
            "doubleSided" : true,
            "name" : "pastic black",
            "pbrMetallicRoughness" : {
                "baseColorTexture" : {
                    "index" : 0
                },
                "metallicFactor" : 0,
                "roughnessFactor" : 0.09545454382896423
            }
        },
        {
            "alphaMode" : "BLEND",
            "doubleSided" : true,
            "extensions" : {
                "KHR_materials_transmission" : {
                    "transmissionFactor" : 0.9363636374473572
                }
            },
            "name" : "glass front",
            "pbrMetallicRoughness" : {
                "baseColorTexture" : {
                    "index" : 1
                },
                "metallicFactor" : 0,
                "roughnessFactor" : 0.031818173825740814
            }
        },
        {
            "doubleSided" : true,
            "name" : "metal gold",
            "pbrMetallicRoughness" : {
                "baseColorTexture" : {
                    "index" : 2
                },
                "metallicFactor" : 0.9818181991577148,
                "roughnessFactor" : 0.20909090340137482
            }
        },
        {
            "alphaMode" : "BLEND",
            "doubleSided" : true,
            "extensions" : {
                "KHR_materials_transmission" : {
                    "transmissionFactor" : 0.5272727012634277
                }
            },
            "name" : "glass nosepad",
            "pbrMetallicRoughness" : {
                "baseColorFactor" : [
                    0.800000011920929,
                    0.800000011920929,
                    0.800000011920929,
                    0.2863636612892151
                ],
                "metallicFactor" : 0.8181818127632141,
                "roughnessFactor" : 0
            }
        }
    ],
    "meshes" : [
        {
            "name" : "Cube.002",
            "primitives" : [
                {
                    "attributes" : {
                        "POSITION" : 0,
                        "NORMAL" : 1,
                        "TEXCOORD_0" : 2
                    },
                    "indices" : 3,
                    "material" : 0
                },
                {
                    "attributes" : {
                        "POSITION" : 4,
                        "NORMAL" : 5,
                        "TEXCOORD_0" : 6
                    },
                    "indices" : 7,
                    "material" : 1
                },
                {
                    "attributes" : {
                        "POSITION" : 8,
                        "NORMAL" : 9,
                        "TEXCOORD_0" : 10
                    },
                    "indices" : 11,
                    "material" : 2
                },
                {
                    "attributes" : {
                        "POSITION" : 12,
                        "NORMAL" : 13,
                        "TEXCOORD_0" : 14
                    },
                    "indices" : 15,
                    "material" : 3
                }
            ]
        }
    ],
    "textures" : [
        {
            "sampler" : 0,
            "source" : 0
        },
        {
            "sampler" : 0,
            "source" : 1
        },
        {
            "sampler" : 0,
            "source" : 2
        }
    ],
    "images" : [
        {
            "bufferView" : 4,
            "mimeType" : "image/png",
            "name" : "pastic black"
        },
        {
            "bufferView" : 9,
            "mimeType" : "image/png",
            "name" : "glass front"
        },
        {
            "bufferView" : 14,
            "mimeType" : "image/png",
            "name" : "metal gold"
        }
    ],
    "accessors" : [
        {
            "bufferView" : 0,
            "componentType" : 5126,
            "count" : 8904,
            "max" : [
                0.07106137275695801,
                0.016948748379945755,
                0.00502121914178133
            ],
            "min" : [
                -0.07106137275695801,
                -0.025035854429006577,
                -0.13266952335834503
            ],
            "type" : "VEC3"
        },
        {
            "bufferView" : 1,
            "componentType" : 5126,
            "count" : 8904,
            "type" : "VEC3"
        },
        {
            "bufferView" : 2,
            "componentType" : 5126,
            "count" : 8904,
            "type" : "VEC2"
        },
        {
            "bufferView" : 3,
            "componentType" : 5123,
            "count" : 44544,
            "type" : "SCALAR"
        },
        {
            "bufferView" : 5,
            "componentType" : 5126,
            "count" : 6802,
            "max" : [
                0.05936955660581589,
                0.011884584091603756,
                0.0019533392041921616
            ],
            "min" : [
                -0.05936955660581589,
                -0.022087380290031433,
                -0.0013601335231214762
            ],
            "type" : "VEC3"
        },
        {
            "bufferView" : 6,
            "componentType" : 5126,
            "count" : 6802,
            "type" : "VEC3"
        },
        {
            "bufferView" : 7,
            "componentType" : 5126,
            "count" : 6802,
            "type" : "VEC2"
        },
        {
            "bufferView" : 8,
            "componentType" : 5123,
            "count" : 10200,
            "type" : "SCALAR"
        },
        {
            "bufferView" : 10,
            "componentType" : 5126,
            "count" : 3220,
            "max" : [
                0.07119369506835938,
                0.011918820440769196,
                -0.001867479644715786
            ],
            "min" : [
                -0.07119369506835938,
                -0.007327698171138763,
                -0.028544224798679352
            ],
            "type" : "VEC3"
        },
        {
            "bufferView" : 11,
            "componentType" : 5126,
            "count" : 3220,
            "type" : "VEC3"
        },
        {
            "bufferView" : 12,
            "componentType" : 5126,
            "count" : 3220,
            "type" : "VEC2"
        },
        {
            "bufferView" : 13,
            "componentType" : 5123,
            "count" : 14568,
            "type" : "SCALAR"
        },
        {
            "bufferView" : 15,
            "componentType" : 5126,
            "count" : 178,
            "max" : [
                0.013314113952219486,
                -0.004737251903861761,
                -4.216315210214816e-05
            ],
            "min" : [
                -0.013314113952219486,
                -0.017995623871684074,
                -0.003432557452470064
            ],
            "type" : "VEC3"
        },
        {
            "bufferView" : 16,
            "componentType" : 5126,
            "count" : 178,
            "type" : "VEC3"
        },
        {
            "bufferView" : 17,
            "componentType" : 5126,
            "count" : 178,
            "type" : "VEC2"
        },
        {
            "bufferView" : 18,
            "componentType" : 5123,
            "count" : 768,
            "type" : "SCALAR"
        }
    ],
    "bufferViews" : [
        {
            "buffer" : 0,
            "byteLength" : 106848,
            "byteOffset" : 0
        },
        {
            "buffer" : 0,
            "byteLength" : 106848,
            "byteOffset" : 106848
        },
        {
            "buffer" : 0,
            "byteLength" : 71232,
            "byteOffset" : 213696
        },
        {
            "buffer" : 0,
            "byteLength" : 89088,
            "byteOffset" : 284928
        },
        {
            "buffer" : 0,
            "byteLength" : 20566,
            "byteOffset" : 374016
        },
        {
            "buffer" : 0,
            "byteLength" : 81624,
            "byteOffset" : 394584
        },
        {
            "buffer" : 0,
            "byteLength" : 81624,
            "byteOffset" : 476208
        },
        {
            "buffer" : 0,
            "byteLength" : 54416,
            "byteOffset" : 557832
        },
        {
            "buffer" : 0,
            "byteLength" : 20400,
            "byteOffset" : 612248
        },
        {
            "buffer" : 0,
            "byteLength" : 396581,
            "byteOffset" : 632648
        },
        {
            "buffer" : 0,
            "byteLength" : 38640,
            "byteOffset" : 1029232
        },
        {
            "buffer" : 0,
            "byteLength" : 38640,
            "byteOffset" : 1067872
        },
        {
            "buffer" : 0,
            "byteLength" : 25760,
            "byteOffset" : 1106512
        },
        {
            "buffer" : 0,
            "byteLength" : 29136,
            "byteOffset" : 1132272
        },
        {
            "buffer" : 0,
            "byteLength" : 20569,
            "byteOffset" : 1161408
        },
        {
            "buffer" : 0,
            "byteLength" : 2136,
            "byteOffset" : 1181980
        },
        {
            "buffer" : 0,
            "byteLength" : 2136,
            "byteOffset" : 1184116
        },
        {
            "buffer" : 0,
            "byteLength" : 1424,
            "byteOffset" : 1186252
        },
        {
            "buffer" : 0,
            "byteLength" : 1536,
            "byteOffset" : 1187676
        }
    ],
    "samplers" : [
        {
            "magFilter" : 9729,
            "minFilter" : 9987
        }
    ],
    "buffers" : [
        {
            "byteLength" : 1189212,
            "uri" : "data:application/octet-stream;base64,"
        }
    ]
}
